<svg width="240" height="80" viewBox="0 0 240 80" xmlns="http://www.w3.org/2000/svg" role="img" aria-label="Efata Delivery logo">
  <defs>
    <linearGradient id="g1" x1="0" y1="0" x2="1" y2="1">
      <stop offset="0" stop-color="#22c55e" />
      <stop offset="1" stop-color="#0f766e" />
    </linearGradient>
    <linearGradient id="g2" x1="0" y1="0" x2="1" y2="1">
      <stop offset="0" stop-color="#22c55e" />
      <stop offset="1" stop-color="#047857" />
    </linearGradient>
  </defs>
  <rect width="240" height="80" rx="20" fill="white" />
  <path d="M26 16h20v12H38v8h8v12H38v12H26V16zm24 0h18c2.21 0 4 1.79 4 4v16c0 2.21-1.79 4-4 4H54v20H42V20c0-2.21 1.79-4 4-4z" fill="url(#g1)" />
  <path d="M110 16h40c8.84 0 16 7.16 16 16v32c0 8.84-7.16 16-16 16h-40c-8.84 0-16-7.16-16-16V32c0-8.84 7.16-16 16-16zm0 8c-4.42 0-8 3.58-8 8v32c0 4.42 3.58 8 8 8h40c4.42 0 8-3.58 8-8V32c0-4.42-3.58-8-8-8h-40zm22 9h8v4h-8zm-2 0h-8v4h8zm-9 13h26v4H121zm0 10h26v4H121z" fill="url(#g2)" />
  <text x="28" y="68" font-family="Inter, sans-serif" font-size="20" font-weight="800" fill="#064E3B">Efata</text>
  <text x="130" y="68" font-family="Inter, sans-serif" font-size="16" font-weight="600" fill="#16a34a">delivery</text>
</svg>
